<svg xmlns="http://www.w3.org/2000/svg" viewBox="0 0 32 32"><circle cx="16" cy="16" r="16" fill="#1B1512"/><path d="M16 16 L16.00 2.60 A13.4 13.4 0 0 1 22.70 4.40 Z" fill="#E23A2E"/><path d="M16 16 L22.70 4.40 A13.4 13.4 0 0 1 27.60 9.30 Z" fill="#E8622C"/><path d="M16 16 L27.60 9.30 A13.4 13.4 0 0 1 29.40 16.00 Z" fill="#F08A24"/><path d="M16 16 L29.40 16.00 A13.4 13.4 0 0 1 27.60 22.70 Z" fill="#F4B31E"/><path d="M16 16 L27.60 22.70 A13.4 13.4 0 0 1 22.70 27.60 Z" fill="#F7D716"/><path d="M16 16 L22.70 27.60 A13.4 13.4 0 0 1 16.00 29.40 Z" fill="#A8C21D"/><path d="M16 16 L16.00 29.40 A13.4 13.4 0 0 1 9.30 27.60 Z" fill="#4F9D3F"/><path d="M16 16 L9.30 27.60 A13.4 13.4 0 0 1 4.40 22.70 Z" fill="#2E8B8B"/><path d="M16 16 L4.40 22.70 A13.4 13.4 0 0 1 2.60 16.00 Z" fill="#2D5FA8"/><path d="M16 16 L2.60 16.00 A13.4 13.4 0 0 1 4.40 9.30 Z" fill="#4B3D9E"/><path d="M16 16 L4.40 9.30 A13.4 13.4 0 0 1 9.30 4.40 Z" fill="#6E3390"/><path d="M16 16 L9.30 4.40 A13.4 13.4 0 0 1 16.00 2.60 Z" fill="#A82D62"/><circle cx="16" cy="16" r="5.2" fill="#1B1512"/><circle cx="16" cy="16" r="4" fill="#EDE4D3"/></svg>